<svg xmlns="http://www.w3.org/2000/svg" width="257" height="42" viewBox="0 0 257 42" xmlns:xlink="http://www.w3.org/1999/xlink"><defs><path id="a" d="M0 41.712h256.155V0H0z"/></defs><g fill="none" fill-rule="evenodd"><path fill="#213140" d="M.158 14.813c-.392-.678.055-1.135 1-1.022l3.02.37 3.023.37c.95.11 1.27.66.71 1.23l-1.76 1.8-1.77 1.81c-.55.564-1.31.47-1.71-.206l-1.25-2.17-1.26-2.17zm6.557 20.245c-.96 0-1.173-.755-.474-1.687l2.25-2.98 2.24-2.98c.7-.93 1.48-.93 1.74 0l.84 2.99.84 2.98c.26.94-.3 1.69-1.26 1.69H6.72zm29.032-15.723l-.606.027c-.23.012-.95-.24-.52-.854l.29-.415.29-.415c.24-.34.72-.373.99-.038l.32.386.32.387c.478.58-.23.884-.46.895l-.6.027zm.502-5.413l-.8.33-.8.33c-.3.12-.75.033-.62-.448l.18-.69.184-.694c.093-.34.44-.49.75-.306l.606.363.61.364c.427.26.16.64-.13.76zM34 8.887l-.91.646-.908.646c-.326.23-.835.23-.813-.34l.03-.93.03-.93c.01-.42.37-.68.78-.55l.87.28.87.28c.534.17.355.65.033.88zm-4.368-4.7l-.57 1.3-.57 1.3c-.2.452-.698.73-1.007.165l-.567-1.035-.565-1.035c-.24-.438-.034-.915.454-1.028l1.136-.266 1.136-.264c.62-.145.74.416.55.864zM21.21.207c.342-.343.687-.147.77.435l.273 1.87.27 1.867c.084.58-.192.86-.62.62l-1.366-.77-1.366-.77c-.42-.24-.49-.71-.15-1.06l1.1-1.1 1.1-1.1zm-9.727 1.356c.13-.623.652-.656 1.16-.073l1.635 1.866 1.634 1.867c.51.583.403 1.088-.238 1.128l-2.055.13-2.06.13c-.64.05-1.06-.43-.93-1.05l.42-1.99.42-1.99zM4.66 6.4c-.01-.67.512-.825 1.17-.35l2.105 1.522 2.106 1.52c.66.474.67 1.015.03 1.207L8 10.91l-2.068.617c-.643.194-1.176-.19-1.19-.86L4.7 8.54 4.66 6.4zM.475 25.434c-.744-.395-.596-1.067.33-1.502l2.964-1.387 2.96-1.387c.92-.434 1.53-.114 1.35.715l-.58 2.652-.59 2.654c-.18.83-.94 1.18-1.68.78L2.86 26.7.474 25.436zm21.08 15.77c-.713.916-1.59.556-1.96-.802l-1.18-4.355-1.18-4.353c-.37-1.36.21-2.102 1.293-1.657l3.47 1.42 3.47 1.42c1.082.444 1.38 1.547.666 2.462l-2.29 2.93-2.288 2.93zm14.566-5.892c-.13 1.496-1.33 1.724-2.69.51l-4.35-3.886-4.35-3.885c-1.36-1.21-1.25-2.42.24-2.7l4.77-.9 4.77-.9c1.49-.28 2.59.71 2.46 2.2l-.412 4.79-.414 4.79zm162.15-15.845c-4.4-6.113-14.28-6.67-19.2-.895-1.15 1.352-2.12 3.446-2.33 5.274H200c-.3-1.598-.805-3.107-1.72-4.38m1.717 9.494l.03-.166h3.583l-.02.22c-.214 2.444-1.288 4.904-2.338 6.47-1.435 2.14-4.685 4.505-7.09 5.326-2.12.722-4.36.88-6.5.88-8.723 0-14.83-6.944-14.83-15.392 0-10.076 7.795-15.29 15.49-15.333 7.713-.044 15.49 5.1 15.48 15.708v.203l-27.273-.01c.62 14.062 21.14 15.167 23.46 2.095"/><mask id="b" fill="#fff"><use xlink:href="#a"/></mask><path fill="#213140" d="M80.795 41.69h3.448V10.81h-3.448M62.42 38.262c6.088.024 12.083-3.888 12.083-11.59v-1.03c0-2.763-1.037-5.092-2.716-7.305-.245-.324-.498-.63-.772-.863-7.97-6.788-20.68-2.26-20.68 8.823 0 7.987 6.007 11.94 12.086 11.965m-4.87 2.75c-6.49-2.053-10.48-7.54-10.48-14.327 0-8.662-.07-17.72-.11-26.382V.106L50.45 0l.05 16.167c8.29-9.852 27.43-5.67 27.43 10.224 0 9.3-6.73 15.3-15.77 15.3-1.55 0-3.106-.2-4.608-.67m99.956.68V27.74c0-4.15 1.188-8.607 4.114-11.8 3.17-3.45 7.83-5.186 12.41-5.186l.5 3.497c-3.094 0-6.44.86-8.44 2.39-1.313 1.01-3.205 3.23-3.822 4.7-.806 1.91-1.12 3.64-1.235 5.41-.12 1.81-.026 14.94-.026 14.94h-3.5zM143.27 25.64c0-2.708-1.016-5-2.678-7.19-.243-.32-.486-.613-.744-.833-7.872-6.705-20.37-2.213-20.37 8.68 0 7.863 5.897 11.755 11.897 11.78 6.01.022 11.895-3.83 11.895-11.405v-1.03zm-27.288.75c0-15.912 19.182-20.087 27.43-10.223l.047-16.14h3.49V.23c-.04 9.13-.12 17.794-.12 26.456 0 6.786-3.99 12.274-10.49 14.328-1.508.475-3.06.676-4.61.676-9.04 0-15.77-6.008-15.77-15.3zm139.435 11.804h.172l.56 3.495h-.24c-10.49 0-17.02-7.21-17.02-16.99V.03h3.49v10.69h12.84v3.496h-12.84V25.64c0 3.84 2.01 7.844 5.08 10.157 2.046 1.544 5.32 2.39 7.942 2.397m-19.65 3.495h-13.98c-12.96 0-18.688-14.65-11.907-24.67 1.856-2.75 4.482-4.34 7.57-5.33 1.24-.4 2.49-.6 3.743-.69 1.25-.1 2.512-.1 3.78-.1h10.796v3.59h-11.45c-6.378 0-11.18 1.75-13.145 8.24-1.66 5.48.723 11.93 6.02 14.39 2.1.97 4.87 1.06 7.22 1.06h11.356v3.49zm-85.26 0h3.45V10.81h-3.45" mask="url(#b)"/><path fill="#213140" d="M93.212 38.288h23.303v3.4h-28.72v-2.716l23.398-24.664h-23.4v-3.496h28.71l.004.2c.03 1.767.057 2.39-.33 3.073-.194.34-.486.66-.785.935-.29.264-.67.73-1.16 1.176-.434.397-21.02 22.092-21.02 22.092" mask="url(#b)"/></g></svg>